<?xml version="1.0" encoding="utf-8"?>
<!-- Generator: Adobe Illustrator 24.3.0, SVG Export Plug-In . SVG Version: 6.00 Build 0)  -->
<svg version="1.0" id="katman_1" xmlns="http://www.w3.org/2000/svg" xmlns:xlink="http://www.w3.org/1999/xlink" x="0px" y="0px"
	 viewBox="0 0 841.89 595.28" style="enable-background:new 0 0 841.89 595.28;" xml:space="preserve">
<style type="text/css">
	.st0{fill:#fff;}
</style>
<path class="st0" d="M760.54,245.86c-6.83-16.23-16.92-30.88-29.65-43.05c-12.95-12.41-28.16-22.23-44.81-28.92
	c-16.57-6.8-34.3-10.3-52.2-10.31l0,0c-36.16,0.23-70.86,14.26-97.01,39.23c-12.79,12.13-22.94,26.76-29.83,42.99
	c-7.03,16.34-10.66,33.93-10.67,51.72c-0.18,19.87,4.24,39.51,12.91,57.39c8.67,17.88,21.35,33.52,37.05,45.69
	c12.43,9.83,26.4,17.53,41.35,22.8c14.78,5.22,30.34,7.88,46.02,7.88c17.8,0.05,35.43-3.39,51.9-10.13
	c16.75-6.74,32.07-16.62,45.11-29.1c12.74-12.07,22.79-26.67,29.53-42.87c6.85-16.4,10.36-34.01,10.31-51.78
	C770.68,279.73,767.28,262.21,760.54,245.86L760.54,245.86z M181.93,290.37c15.03-1.63,29.15-8,40.32-18.19
	c4.6-4.83,8.17-10.55,10.49-16.8c2.32-6.25,3.35-12.91,3.03-19.58c0.16-11.07-2.64-21.97-8.12-31.59
	c-5.6-9.38-13.56-17.12-23.1-22.43c-9.4-4.73-19.49-7.95-29.89-9.52c-18.1-2.25-36.33-3.21-54.57-2.85H71.94v255.26h41.9
	c21.17,0.5,42.36-0.62,63.36-3.33c11.63-1.82,22.89-5.5,33.35-10.91c10.45-5.58,19.13-13.99,25.04-24.25
	c6.15-10.49,9.32-22.46,9.16-34.62c0.36-7.62-0.87-15.23-3.6-22.34c-2.73-7.12-6.92-13.59-12.29-19.01
	C218.27,300.01,202.62,293.4,181.93,290.37z M253.47,169.65h54.93v255.26h-54.93V169.65z M435.73,290.37
	c15.03-1.63,29.15-8,40.32-18.19c4.6-4.83,8.17-10.55,10.49-16.8c2.32-6.25,3.35-12.91,3.03-19.58c0.17-11.06-2.61-21.97-8.06-31.59
	c-5.6-9.38-13.56-17.12-23.1-22.43c-9.4-4.73-19.49-7.95-29.89-9.52c-18.1-2.25-36.33-3.21-54.57-2.85h-48.14v255.26h41.9
	c21.17,0.5,42.36-0.62,63.36-3.33c11.61-1.82,22.85-5.51,33.29-10.91c10.48-5.56,19.18-13.97,25.1-24.25
	c6.15-10.49,9.32-22.46,9.16-34.62c0.33-7.61-0.91-15.21-3.64-22.33c-2.73-7.11-6.9-13.59-12.24-19.02
	C472.13,300.01,456.47,293.4,435.73,290.37z"/>
</svg>
