<svg xmlns="http://www.w3.org/2000/svg" height="30" width="50" fill="#fff" version="1.0" viewBox="-22.3776 -13.28735 193.9392 79.7241"><defs><clipPath id="a"><path d="M0 0h649.134v850.394H0z"/></clipPath></defs><g clip-path="url(#a)" transform="matrix(1.25 0 0 -1.25 -56.9455 1008.0711)" fill="#fff"><path d="M98.4432 783.7189c.12-3.13 1.768-4.443 3.351-4.443 1.272 0 2.399.677 3.437 2.322l1.809-1.031c-1.415-2.128-3.19-3.187-5.189-3.187-2.936 0-5.639 2.331-5.639 6.718 0 4.162 2.567 6.54 5.478 6.54 2.591 0 4.575-1.815 5.174-4.548.202-.914.248-1.629.257-2.371zm6.533 1.677c-.207 2.412-1.702 3.589-3.238 3.589-1.816 0-3.159-1.615-3.256-3.589z"/></g><path  d="M83.6363 36.0311l-5.235-15.9438h2.9362L85.08 32.2486l3.8388-12.1613h2.9l-5.2875 15.9438zm9.4593-7.9625c0-5.2113 3.0563-8.325 7.0175-8.325 4.2563 0 7.235 3.3175 7.235 8.3762 0 5.2625-3.3162 8.2263-6.9575 8.2263-4.1387 0-7.295-3.1975-7.295-8.2775m11.425-.1813c0-3.6875-1.6825-5.885-4.2387-5.885-2.8675 0-4.36 2.4988-4.36 6.0563 0 3.7112 1.68 6.0287 4.3087 6.0287 2.4613 0 4.29-2.1775 4.29-6.2m6.9485-7.8006v-5.585h2.7663v5.585h3.555v2.2688h-3.555v9.3825c0 1.36.5737 2.1512 1.9875 2.23.5075.0275 1.08-.0338 1.5675-.0913v2.4c-.4475.0375-1.1038.1288-1.7138.1288-1.0387 0-1.9225-.115-2.6062-.4288-1.2988-.5937-2.0013-1.9437-2.0013-3.915v-9.7062h-2.6562v-2.2688zm10.8653 8.3358c.1525 3.9125 2.21 5.5537 4.1912 5.5537 1.5875 0 2.9963-.8462 4.2938-2.9025l2.265 1.2888c-1.775 2.66-3.99 3.9837-6.4913 3.9837-3.67 0-7.0475-2.9137-7.0475-8.3975 0-5.2025 3.2075-8.175 6.8475-8.175 3.2388 0 5.7163 2.2688 6.4688 5.685.2475 1.1425.3075 2.0363.3162 2.9638zm8.1687-2.0963c-.2625-3.015-2.13-4.4862-4.0525-4.4862-2.2662 0-3.9462 2.0187-4.065 4.4862zm16.2309-1.4732c-.96-1.7725-2.0862-2.8225-3.735-2.8225-2.245 0-4.1612 2.0262-4.1612 5.9187 0 3.5888 1.78 5.9963 4.1612 5.9963 1.6975 0 3.005-1.0675 3.8863-3.1425l2.2987 1.2262c-1.42 2.795-3.28 4.3175-6.1662 4.3175-4.01 0-7.0663-3.2387-7.0663-8.2787 0-4.9463 3.135-8.285 7.1263-8.285 2.7062 0 4.625 1.3912 6.0375 4.075z" fill="#fff"/><path d="M42.325 21.1337c.0075 5.4238-2.0575 10.8525-6.1975 14.9925-4.1338 4.1325-9.5488 6.1988-14.9638 6.1988-5.415 0-10.83-2.0663-14.965-6.1988C2.0662 31.9937 0 26.5775 0 21.1612c0-5.4162 2.0662-10.835 6.1987-14.9687C10.33 2.0637 15.745 0 21.1612 0c5.4163.0012 10.8325 2.0675 14.9663 6.2 4.1237 4.1262 6.19 9.5287 6.1975 14.9337m10.8287 22.4931c0 2.4375-.93 4.875-2.79 6.735-1.86 1.8588-4.2962 2.7875-6.7325 2.7875-2.4375 0-4.8737-.9287-6.735-2.7875-1.8587-1.86-2.7887-4.2975-2.7887-6.735 0-2.4387.93-4.8775 2.7887-6.7387 1.8588-1.8563 4.2963-2.785 6.7325-2.785 2.4375.0012 4.875.93 6.735 2.7887 1.86 1.8613 2.79 4.2988 2.79 6.735" fill="#fff"/></svg>