<?xml version="1.0" encoding="utf-8"?>
<!-- Generator: Adobe Illustrator 26.4.1, SVG Export Plug-In . SVG Version: 6.00 Build 0)  -->
<svg version="1.0" id="katman_1" xmlns="http://www.w3.org/2000/svg" xmlns:xlink="http://www.w3.org/1999/xlink" x="0px" y="0px"
	 viewBox="0 0 841.89 595.28" style="enable-background:new 0 0 841.89 595.28;" xml:space="preserve">
<style type="text/css">
	.st0{fill:#FDEB19;}
	.st1{fill:#010202;}
</style>
<path class="st0" d="M172.32,468.97c-63.51,0-109.51-71.43-120.55-138.63c-5.82-35.48-2.46-67.5,9.75-92.6
	c10.24-21.06,26.47-36.25,45.72-42.77c1.34-0.46,2.41-1.48,2.92-2.79c0.54-1.36,0.44-2.89-0.26-4.18
	c-2.8-5.16-4.11-10.73-3.81-16.11c0.53-9.39,5.8-17.3,14.46-21.71c4-2.04,8.45-3.07,13.22-3.07c9.91,0,21.25,4.63,33.71,13.77
	c7.47,5.48,13.28,11.43,17.76,18.2c0.95,1.43,2.51,2.28,4.18,2.28c0.8,0,1.6-0.2,2.3-0.59c6.64-3.69,14.46-5.64,22.6-5.64h0.58
	c11.12,0.13,20.9,3.66,28.26,10.22c0.9,0.8,2.06,1.24,3.27,1.25c1.79,0,3.44-0.98,4.28-2.57c8.98-16.95,25.05-26.67,44.11-26.67
	h0.61c19.24,0.22,34.08,13.05,36.9,31.95c0.35,2.37,2.42,4.15,4.8,4.15c0.44,0,0.87-0.06,1.29-0.18c4.06-1.14,8.23-1.91,12.39-2.3
	c2.19-0.2,4.37-0.31,6.5-0.31c1.44,0,2.93,0.05,4.39,0.16c0.05,0,0.31,0.01,0.36,0.01c1.48,0,2.87-0.67,3.81-1.83
	c0.93-1.14,1.28-2.65,0.96-4.09c-0.68-3.12-1.2-6.2-1.53-9.15c-2.92-25.78,12.09-47.16,34.93-49.75c1.61-0.2,3.21-0.29,4.79-0.29
	c18.11,0,38.95,13.04,43.1,49.65c0.66,5.88,1.36,15.57,2.14,29.64c0.14,2.59,2.29,4.62,4.9,4.62c0.46,0,0.92-0.06,1.37-0.19
	c1.55-0.44,3.16-0.78,4.77-0.99c2.35-0.32,4.66-0.48,6.88-0.48c11.94,0,22.13,4.64,29.47,13.43c0.94,1.13,2.33,1.78,3.79,1.78
	c1.57,0,3.04-0.76,3.94-2.04c1.37-1.95,2.81-3.82,4.29-5.56c13.04-15.44,30.7-23.94,49.72-23.94c2,0,4.02,0.1,6.03,0.28
	c4.73,0.44,9.3,1.47,13.59,3.07c0.58,0.22,1.18,0.33,1.8,0.33c1.92,0,3.61-1.05,4.41-2.74c6.7-14.17,20.45-22.63,36.77-22.63
	c3.13,0,6.25,0.33,9.25,0.99c3.46,0.76,6.69,1.95,9.59,3.57c0.71,0.39,1.51,0.61,2.33,0.61c1.57-0.01,3.05-0.76,3.98-2.03
	c8.97-12.12,20.53-19.71,33.46-21.94c2.08-0.36,4.22-0.54,6.34-0.54c12.14,0,23.17,5.52,30.24,15.13c0.92,1.24,2.38,1.98,3.92,1.98
	c1.16,0,2.27-0.42,3.15-1.16c3.51-3,7.49-5.8,11.84-8.32c11.75-6.8,22.29-10.26,31.31-10.26c6.2,0,11.75,1.57,16.5,4.68
	c8.13,5.32,12.52,13.75,12.05,23.14c-0.63,12.42-9.55,22.45-18.11,26.87c-3.47,1.8-7.1,3.43-11.1,5.01
	c-1.55,0.61-2.66,1.95-2.98,3.58c-0.33,1.66,0.22,3.37,1.45,4.53c1.42,1.35,2.79,2.79,4.06,4.26c10.26,11.8,16.16,27.41,16.2,42.83
	c0.03,11.62-4.45,22.53-12.61,30.71l-0.44,0.43c-0.95,0.92-1.49,2.18-1.5,3.49c-0.01,1.29,0.48,2.51,1.38,3.43
	c11.63,11.86,17.18,26.61,16.96,45.1c-0.46,39.04-24.18,67.47-59.03,70.76c-2.11,0.2-4.22,0.3-6.27,0.3
	c-20.28,0-38.48-9.41-49.94-25.82c-0.91-1.29-2.39-2.06-3.96-2.06c-1.14,0-2.24,0.4-3.11,1.12c-8.17,6.74-17.72,10.31-27.61,10.31
	c-3.06,0-6.16-0.34-9.21-1c-13.18-2.87-22.96-8.83-29.07-17.69c-0.7-1.02-1.35-2.07-1.93-3.15c-0.86-1.58-2.52-2.56-4.32-2.56
	c-0.73,0-1.44,0.16-2.11,0.47c-5.56,2.59-11.48,4.42-17.62,5.44c-1.43,0.24-2.67,1.1-3.4,2.36c-0.73,1.28-0.85,2.82-0.32,4.19
	c1.35,3.51,2.28,7.38,2.78,11.49c1.63,13.48-1.83,26.08-9.74,35.49c-5.56,6.61-16.02,14.7-34.24,15.65
	c-1.03,0.05-2.06,0.08-3.07,0.08c-22.54,0-41.78-13.06-54.17-36.78c-0.87-1.66-2.53-2.68-4.37-2.68c-1.36,0-2.63,0.54-3.58,1.54
	c-8.52,8.91-19.59,11.03-23.94,11.52c-1.75,0.2-3.52,0.3-5.26,0.3c-8.13,0-15.44-2.1-21.72-6.24c-0.81-0.54-1.76-0.82-2.73-0.82
	c-2.06,0-3.85,1.24-4.56,3.16c-2.99,8.04-7.68,15.62-13.23,21.34c-7.63,7.89-16.52,12.05-25.69,12.05c-3.98,0-7.89-0.8-11.6-2.36
	c-9.94-4.2-16.15-12.65-16.6-22.59c-0.22-4.96,0.91-9.87,3.45-15.04c0.69-1.38,0.69-3.01,0-4.39c-0.67-1.36-1.95-2.32-3.44-2.59
	c-10.68-1.99-20.59-6.84-28.68-14.02c-0.89-0.79-2.04-1.23-3.23-1.23c-1.59,0-3.08,0.77-3.98,2.07
	c-10.27,14.7-25.67,22.79-43.35,22.79h-0.67c-7.58-0.09-14.75-1.5-21.3-4.2c-0.61-0.25-1.25-0.38-1.89-0.38
	c-2.7,0-4.86,2.12-4.9,4.84c-0.16,11.25-3.85,21.73-10.68,30.32c-8.28,10.42-20.8,17.47-35.24,19.87c-4.44,0.74-8.95,1.1-13.4,1.1
	L172.32,468.97z"/>
<path class="st1" d="M729.29,200.51c0.37,0.01,0.76-0.01,1.18-0.12c13.11-3.3,27.27-7.01,39.35-13.26
	c6.8-3.51,13.12-14.22,4.53-19.84c-7.94-5.19-22.29,1.91-29.48,6.07c-9.36,5.42-16.62,12.3-21.11,22.09
	C722.37,198.48,726.47,202.02,729.29,200.51L729.29,200.51z M761.08,173.96c-0.37-4.41,8.42-7.39,12.41-1.13
	c0.34,0.53-0.15,1.2-0.75,1.01c-3.57-1.07-6.59-0.59-10.79,0.7C761.55,174.67,761.12,174.39,761.08,173.96L761.08,173.96z
	 M193.47,367.73c-2.68-16.19,16.21-20,13.8-34.58c-2.36-14.25-33.25-14.66-61.23-10.02c-10.96,1.82-20.8,7.24-19.01,18.05
	c4.24,25.61,45.85,17.21,49.22,37.56c1.57,9.47-2.96,15.77-11.61,17.2c-28.95,4.79-50.62-29.92-57.65-72.32
	c-6.46-39.01,7.65-70.82,25.49-73.77c10.24-1.7,15.46,5.35,16.9,14.93c1.7,11.34-2.68,17.42-1.05,27.21
	c1.91,11.55,9.15,16.88,24.21,15.29c14.01-1.57,27-13.56,23.03-37.54c-6.32-38.16-39.18-66.97-76.32-59.92
	c-33.78,6.5-61.47,49.09-50.21,117.68c11.26,68.56,58.85,132.21,113.82,123.11c20.61-3.41,34.21-19.24,30.77-40
	C210.03,388.82,196.17,383.96,193.47,367.73L193.47,367.73z M161.48,293.2c11.73,0.25,18.87-4.43,24.02-13.84
	c0.35-0.65,1.33-0.35,1.26,0.39c-1.02,10.71-6.78,16.03-14.37,17.13c-4.75,0.69-8.83-0.17-11.39-2.52
	C160.56,293.94,160.87,293.18,161.48,293.2L161.48,293.2z M183.06,438.92c-2.7,0.52-6.14,0.8-9.19,0.53
	c-0.78-0.07-0.82-1.18-0.05-1.33c11.69-2.25,25.82-10.45,26.4-29.17c0.03-0.78,1.13-0.89,1.32-0.14
	C205.59,424.61,198.7,435.94,183.06,438.92L183.06,438.92z M290.64,268.27c0.45-40.53,24.44-45.44,24.73-71.97
	c0.14-12.5-7.5-21.34-20.1-21.47c-19.57-0.22-34.28,15.27-34.56,41.14c-0.22,20.48,12.46,46.28,12.08,80.78
	c-0.23,20.91-4.44,37.9-15.04,37.79C244.54,334.39,239,312,239.29,285.6c0.17-15.53,2.44-38.78,2.57-51.29
	c0.23-21.13-4.11-41.45-27.13-41.7c-14.61-0.16-27.49,8.97-24.97,26.68c3.3,23.13,19.54,30.61,23.78,64.8
	c2.58,20.82,0.18,35.86,2.02,55.34c3.73,39.55,18.61,60.22,44.37,60.5c25.58,0.28,38.08-22.65,38.33-45.5
	C298.67,317.12,290.19,309.88,290.64,268.27L290.64,268.27z M214.17,207.51c-7.72,2.8-7.53,9.61-5.46,17.96
	c0.18,0.74-0.69,1.25-1.15,0.67c-11.49-14.34-1.42-24.08,6.68-19.97C214.78,206.44,214.74,207.3,214.17,207.51L214.17,207.51z
	 M258.3,383.26c-0.58-0.37-0.35-1.25,0.34-1.32c12.61-1.23,19.02-8.65,23.37-19.52c0.3-0.74,1.41-0.53,1.42,0.27
	C283.59,383.35,265.58,387.88,258.3,383.26z M652.33,247.28c3.04-23.56,27.74-23.62,38.74-29.98c12.62-7.29,17.53-17.64,16.05-30.73
	c-1.48-13.09-12.99-20-23.52-18.18c-22.26,3.84-33.06,31.5-36.53,49.8c-0.63,3.31-3.76,3.29-3.91-0.85
	c-0.52-14.23-3.88-26.75-15.62-29.3c-10.28-2.24-24.91,1.57-28.47,17.92c-6.17,28.34,44.46,43.8,31.42,103.66
	c-4.9,22.49-14.73,30.74-17.62,44.03c-3.13,14.36,3.07,24.99,20.98,28.88c18.56,4.05,31.71-13.04,35.13-26.79
	c11.52-47.36-22.28-65.05-16.67-108.46L652.33,247.28z M677.01,206.78c9.15-3.89,15.65-9.51,16.58-20.76
	c0.06-0.72,1.07-0.84,1.31-0.15c6.39,18.23-8.89,23.25-17.73,22.19C676.49,207.98,676.37,207.04,677.01,206.78L677.01,206.78z
	 M616.12,223.34c-10.6-9.53-5.74-20.73-1.72-23.18c0.49-0.3,1.1,0.1,1.02,0.67c-1.44,9.9-0.48,14.1,1.8,21.82
	C617.4,223.3,616.62,223.79,616.12,223.34L616.12,223.34z M657.26,352.44c0.41-0.64,1.38-0.25,1.23,0.5
	c-3.78,18.33-22.79,19.2-28,14.22c-0.45-0.43-0.09-1.18,0.52-1.14C641.03,366.68,651.92,360.86,657.26,352.44L657.26,352.44z"/>
<path class="st1" d="M333.66,260.83c-1.27-13.49,6.7-21.21,14.41-21.94c16.02-1.51,14.99,11.82,14.95,22.64
	c-0.03,10.68,5.9,17.88,16.24,18.22c11.5,0.39,21.21-10.18,21.17-24.92c-0.05-22.96-16.13-49.46-47.93-46.47
	c-27.56,2.59-50.63,26.79-47.63,58.64c4.15,44.03,52.92,38.09,55.56,66.11c0.54,5.78-1.23,11.9-7.91,12.52
	c-6.07,0.57-8.64-6.05-11.98-11.25c-3.34-5.2-7.82-9.28-14.83-8.61c-11.94,1.12-18.52,11.64-17.38,27.06
	c1.42,19.28,19.57,40.99,47.68,38.34c25.79-2.43,46.78-24.67,47.13-54.6c0.67-56.5-66.53-44.18-69.5-75.76L333.66,260.83z
	 M374.75,262.57c9.25,0.82,15.54-2.95,19.8-10.53c0.36-0.65,1.36-0.31,1.23,0.42c-3.23,17.45-17.22,16.35-21.57,11.19
	C373.83,263.2,374.17,262.51,374.75,262.57L374.75,262.57z M331.88,372.06c-15.06-9.83-18.52-30.08-3.13-34.49
	c0.65-0.18,1.16,0.6,0.69,1.1c-7.24,7.72-5.26,21.98,3.31,32.4C333.24,371.66,332.52,372.47,331.88,372.06L331.88,372.06z
	 M698.89,269.12c-1.27-13.49,6.7-21.21,14.41-21.94c16.02-1.51,14.99,11.82,14.95,22.64c-0.03,10.68,5.9,17.88,16.24,18.22
	c11.5,0.39,23.55-10.4,23.51-25.14c-0.05-22.96-18.48-49.24-50.27-46.25c-27.56,2.59-50.63,26.79-47.63,58.64
	c4.71,49.94,60.28,37.98,62.93,66c0.54,5.78-1.23,11.9-7.91,12.52c-6.07,0.57-8.64-6.05-11.98-11.25c-3.34-5.2-7.82-9.28-14.83-8.61
	c-11.94,1.12-18.52,11.64-17.38,27.06c1.42,19.28,19.57,40.99,47.68,38.34c25.79-2.43,42.83-23.62,43.18-53.55
	C772.46,289.31,701.86,300.7,698.89,269.12L698.89,269.12z M739.33,270.85c9.47,0.84,15.91-3.02,20.27-10.78
	c0.37-0.66,1.39-0.31,1.25,0.44c-3.31,17.88-17.63,16.75-22.09,11.45C738.38,271.49,738.73,270.79,739.33,270.85L739.33,270.85z
	 M702.8,381.64c-15.06-9.83-18.52-30.08-3.13-34.49c0.65-0.18,1.16,0.6,0.69,1.1c-7.24,7.72-5.26,21.98,3.31,32.4
	C704.16,381.24,703.44,382.06,702.8,381.64L702.8,381.64z M363.05,436.3c14.76,6.24,29.94-18.7,29.51-31.92
	c-0.11-3.41-1.26-6.05-3.72-7.16c-1.74-0.79-3.77,0.03-5.43,0.92C375.39,402.43,344.2,428.33,363.05,436.3z M375.99,423.19
	c0.79,7.38-7.93,10.56-10.4,6.88c-0.21-0.31-0.12-0.73,0.19-0.94c0.04-0.03,0.08-0.05,0.13-0.07c4.09-1.62,6.74-3.13,8.86-6.2
	C375.12,422.34,375.93,422.56,375.99,423.19L375.99,423.19z M175.77,199.18c-3.41-10.21-9.89-17.84-18.61-24.23
	c-6.7-4.91-20.2-13.52-28.65-9.21c-9.15,4.66-4.02,15.98,2.37,20.21c11.34,7.5,25.01,12.72,37.69,17.42
	c0.4,0.15,0.79,0.22,1.16,0.25C172.37,205.43,176.83,202.34,175.77,199.18z M135,181.17c-3.75,2.34-10.41-4.13-6.66-10.54
	c0.32-0.54,1.13-0.41,1.25,0.2c0.67,3.66,2.47,6.13,5.54,9.29C135.42,180.42,135.37,180.93,135,181.17L135,181.17z"/>
<path class="st1" d="M536.98,379.8c-50.73-17.91-41.92-99.67-43.63-117.9c-2.19-23.32-9.21-38.89-29.67-36.11
	c-9.69,1.32-17.16,11.45-21.94,25.23c-1.22,3.51-2.53,5.89-4,6.05c-1.47,0.16-2.41-2.33-2.67-6.94
	c-1.16-20.94-2.64-58.05-4.31-72.78c-2.14-18.85-10.71-35.99-28.53-33.98c-14.49,1.64-21.18,15.82-19.52,30.4
	c4.01,35.41,35.66,68.89,40.13,108.39c6.22,54.96-13.42,70.4-10.33,100.38c2.04,19.76,13.73,26.49,26.54,25.04
	c16.74-1.9,21.91-16.98,19.58-38.19c-2.11-19.2-9.92-34.78-11.16-54.6c-1.42-22.72,2.22-33.8,11.08-34.68
	c13.27-1.31,14.87,25.67,15.45,57.3c1.04,56.75,20.54,98.2,55.26,96.4c22.52-1.17,29.26-17.23,27.53-31.58
	c-1.43-11.86-7.59-18.14-19.81-22.46L536.98,379.8z M408.92,156.29c-10.97,2.79-13.95,8.55-15.62,18.65c-0.12,0.74-1.2,0.74-1.33,0
	c-3.33-18.79,10.05-23.65,17.12-19.89C409.64,155.33,409.51,156.14,408.92,156.29L408.92,156.29z M530.11,424.57
	c-0.76,0.08-1.05-0.97-0.35-1.29c7.57-3.38,14.22-8.41,14.78-27.55c0.02-0.72,1.01-0.91,1.29-0.25
	C553.54,413.62,542.62,423.28,530.11,424.57L530.11,424.57z"/>
<path class="st1" d="M604.87,294.74c-7.26-0.29-14.23,5.48-17.13,14.33c-3.32,10.15-9.97,26.95-22.81,26.95
	c-13.63,0-21.89-19.54-20.38-29.81c0.27-1.79,1.22-3.19,3.54-2.44c1.95,0.62,5.42,1.67,7.82,2.04c20.7,3.2,37.87-15.11,41.35-38.87
	c4.06-27.66-7.55-55.2-33.42-57.59c-29.85-2.76-54.91,22.38-59.52,67.23c-4.44,43.2,10.02,83.78,51.31,88.6
	c30.71,3.58,52.46-14.88,60.66-43.8C619.79,309.06,617.79,295.24,604.87,294.74L604.87,294.74z M539.52,260.16
	c1.72-11.71,6.84-22.74,13.84-21.66c6.85,1.06,9.62,15.8,7.74,28.66c-1.51,10.25-6.66,19.77-13.88,18.65
	C539.72,284.66,537.73,272.37,539.52,260.16z M609.7,320.51c-0.09,0.78-1.15,0.87-1.37,0.13c-1.84-6.26-4.92-10.09-8.36-11.06
	c-0.38-0.11-0.61-0.51-0.5-0.89c0.01-0.05,0.04-0.1,0.06-0.15C603.44,301.46,611.38,305.28,609.7,320.51L609.7,320.51z"/>
</svg>
