<svg xmlns="http://www.w3.org/2000/svg"  height="800" width="1200" viewBox="-21 -19.2565 182 115.539"><path fill="#fff" d="M78.055 23.415V49.46c0 15.611 9.011 27.144 31.119 27.144 18.334 0 30.826-11.84 30.826-27.144V23.415h-17.197v27.25c0 5.117-4.512 10.426-13.629 10.426-9.922 0-13.62-5.926-13.62-10.426v-27.25H78.055m9.617-15.859c0 4.167 3.39 7.556 7.577 7.556 4.187 0 7.576-3.389 7.576-7.556 0-4.181-3.39-7.556-7.576-7.556-4.187.001-7.577 3.376-7.577 7.556m41.657 0c0 4.167-3.394 7.556-7.585 7.556-4.176 0-7.591-3.389-7.591-7.556 0-4.181 3.415-7.556 7.591-7.556 4.192.001 7.585 3.376 7.585 7.556M71.1 37.688c.167 1.396.217 2.333.217 3.771 0 19.635-15.954 35.567-35.653 35.567C15.961 77.027 0 61.095 0 41.46 0 21.808 15.961 5.891 35.663 5.891c9.151 0 17.497 3.453 23.824 9.101L48.203 27.513c-3.339-2.991-7.722-4.809-12.54-4.809-10.388 0-18.81 8.395-18.81 18.755 0 10.354 8.422 18.751 18.81 18.751 7.022 0 13.122-3.842 16.353-9.523H38.207V37.706h32.729l.139.007"/></svg>