<?xml version="1.0" encoding="utf-8"?>
<!-- Generator: Adobe Illustrator 25.0.1, SVG Export Plug-In . SVG Version: 6.00 Build 0)  -->
<svg version="1.1" id="katman_1" xmlns="http://www.w3.org/2000/svg" xmlns:xlink="http://www.w3.org/1999/xlink" x="0px" y="0px"
	 viewBox="0 0 560 400" style="enable-background:new 0 0 560 400;" xml:space="preserve">
<style type="text/css">
	.st0{fill-rule:evenodd;clip-rule:evenodd;}
</style>
<path class="st0" d="M322.2,317c-8.1,5.9-12.6,13.9-12.5,21.9c0,11.8,9.9,23.2,32.9,23.1c5.7,0,10.7-0.6,15.3-1.3
	c1.3-0.2,2.6-0.4,3.9-0.7l2.7-11c-4.4,1.4-10.1,2.6-14.6,2.6c-12.2,0-20.4-7-20.4-16.1c0-4.9,2.1-9.2,5.8-12.3
	c4-3.4,10-5.4,17.4-5.4c5.9,0,9.3,1.6,11.7,3.8c0.5,0.4,0.9,0.9,1.3,1.4h1.9l3.7-13c-3.9-1.2-9.6-2.3-15.6-2.3
	C341.6,307.5,330.2,311.2,322.2,317"/>
<path class="st0" d="M306.2,318.8c1.6,0,3,0.6,3.9,1.3c0.8,0.6,1.3,1.4,1.3,2.1h1.9l3.7-14.1h-49.6l-0.7,2.8l-0.2,0.7
	c0,0,5.4,0.6,3.8,5.8l-12.4,43.4l21.1,0h3.7l0.9-3.7c0,0-4.6-1.1-3.4-5.2c0.1-0.3,1.8-6.4,2.8-10.1c0.5-1.6,0.8-2.8,0.8-2.8l11.3,0
	c1.9,0,3.3,0.3,4.4,0.7c2.3,0.8,3.1,2.1,3.1,2.1l3.3-12.9h-19.1l2.1-7.4l0.8-2.8L306.2,318.8L306.2,318.8z"/>
<path class="st0" d="M245.9,353.1c-1.5-1.5-14.2-20.7-14.2-20.7l22.5-17.4l0.7-0.6c1-0.8,2-1.4,2.8-1.8c2.4-1.2,3.9-1,3.9-1l0.9-3.5
	l-29,0l-0.7,2.8l-0.2,0.7c2,0.1,4.7,1.8,2.5,3.9c-0.3,0.2-23.3,17.2-23.3,17.2l0.2-0.6l4.8-16.7c1-3.3,4.7-3.7,4.7-3.7l0.9-3.4
	l-27.6,0l-0.7,2.8l-0.2,0.7c1.3,0.3,5.1,1,3.8,5.8c-9.2,32.2-8.2,29-8.8,30.8c-2.1,7.6-5.2,8.7-7,8.9c-0.4,0-0.8,0-1,0.1l-0.4,1.4
	l-0.6,2.3h28.9l1-3.8c0,0-4.6-0.9-3.7-4.1c0.4-1.6,1.6-5.7,2.6-9.3c1-3.5,1.9-6.6,1.9-6.6c5,7.8,6.2,8.7,12.2,16.8
	c5.6,7.4,11.5,7.1,25.9,7c1.2,0,2.4,0,3.7,0l1-3.7C249.8,357.2,247.4,354.6,245.9,353.1"/>
<path class="st0" d="M379.2,309.1c-0.7-0.7-1.6-1-2.6-1c-1,0-1.9,0.3-2.6,1c-0.7,0.7-1.1,1.5-1.1,2.5c0,1,0.4,1.8,1.1,2.5
	c0.7,0.7,1.6,1,2.6,1c1,0,1.9-0.4,2.6-1c0.7-0.7,1.1-1.5,1.1-2.5C380.3,310.6,379.9,309.7,379.2,309.1 M378.9,313.7
	c-0.6,0.6-1.4,0.9-2.2,0.9c-0.9,0-1.6-0.3-2.2-0.9c-0.6-0.6-0.9-1.3-0.9-2.2c0-0.8,0.3-1.6,0.9-2.1c0.6-0.6,1.3-0.9,2.2-0.9
	c0.9,0,1.6,0.3,2.2,0.9c0.6,0.6,0.9,1.3,0.9,2.1C379.8,312.4,379.5,313.1,378.9,313.7"/>
<path class="st0" d="M378.3,310.7c0-0.5-0.2-0.8-0.6-1c-0.3-0.1-0.6-0.1-1.1-0.1h-1.4v3.9h0.7v-1.5h0.6c0.4,0,0.6,0,0.8,0.1
	c0.2,0.1,0.4,0.4,0.4,0.9v0.3l0,0.1v0l0,0h0.7l0-0.1c0,0,0-0.1-0.1-0.2v-0.6c0-0.2-0.1-0.4-0.2-0.6c-0.1-0.2-0.4-0.3-0.7-0.4
	c0.2,0,0.4-0.1,0.6-0.2C378.1,311.3,378.3,311.1,378.3,310.7 M377.2,311.4c-0.1,0.1-0.4,0.1-0.7,0.1h-0.7v-1.4h0.6
	c0.4,0,0.7,0,0.9,0.1c0.2,0.1,0.3,0.3,0.3,0.6C377.6,311.1,377.4,311.3,377.2,311.4"/>
<path class="st0" d="M348.1,136.3c-0.6,8.4-5.3,16.5-6.5,18.6c-2.5,4.6-3.4,7.8-3.9,9.4c-0.5,1.5-1.7,1.1-2,0.8
	c-0.3-0.3-0.5-1.6-0.7-1.8c-0.2-0.2-0.7-0.2-1.2,1.1c-0.5,1.3-1.8,3-2.6,3.9c-0.5,0.6-0.6,1.5-0.6,2.3c0,1.4,0,6.9-1.1,13
	c-1.9,10.9-6.7,17.3-10.1,20.5c-7.9,7.6-14.7,10.4-15.5,10.8c-1.1,0.5-2.7,0.2-3.2,0c-0.5-0.2-0.9-0.8-1.9-1.7
	c-0.9-0.8-1.3,0.4-1.3,0.8l0.4,2.6c0.2,2.1-1.3,4.5-2.8,6.3c-1,1.1-2,2.3-2.8,3.6c-1,1.6-1.8,3.3-1.8,5.2c-0.1,0.3-0.1,0.5-0.4,0.6
	c-2,0.4-3.7-1.8-5.2-3.1c-1-0.9-2-1.8-3-2.7l0,0c-1.1-1-2.1-2-3.1-3.1l-0.2-0.2c-0.4-0.4-0.7-0.9-1.1-1.3l-0.3-0.4
	c-0.4-0.5-0.8-1.1-1.2-1.7c-3.6-5.6-2.7-9.1-0.6-15.4c1.5-4.5,0.5-9.1,0.3-9.7c-0.3-0.7,0.2-1.2,1.2-0.6c1,0.6,1.7,2.1,2.6,3.5
	c0.9,1.4,1.2,0.5,1.4-0.3c0.5-2,0.2-3.7,0.1-4.6c-0.1-0.5-0.4-1.8-1.5-2.1c-1.4-0.5-2.8-0.8-3.5-1.4c-0.3-0.3-0.7-0.9-0.2-1.2
	c0.8-0.6,2-1.4,3.1-1.6c1.5-0.3,2.9-0.8,4.7-0.6c11.9,1.6,15.5-0.6,20.3-1.9c0.9-0.2,1.5-0.3,2.2,0c0.7,0.3,2.7,1.3,3.1,2.3
	c0.4,0.9,0,4.7,0.6,7.5c0.6,2.8,2.7,0.3,3.3-0.9c0.5-1.1,1.1-3.8,1.2-4.5c0.1-0.7,0.7-3.6,1.8-4.4c2.2-1.7,2.9-3.9,3.3-4.8
	c0.4-0.9,0.9-3.6,0.8-7.5c-0.1-3.9-0.9-4.4-1.9-5.2c-1-0.8-2.2-0.7-4.7-2.9c-2.3-2-4.1-5.1-5.8-7.1c-1.7-2-4.4-4.1-7.5-4.9
	c-3.1-0.7-1.6,2.2-1.5,3c0.1,0.5,0.4,2.1-0.6,2.9c-1,0.8-6.9,4.6-11.8,3.9c-7.9-1.2-10.6-6.6-11-8.6c-0.4-2.2,2-6.8,2.5-10.3
	c0.2-1.5,0.3-4.5,0.3-6.6c0-2.1,1.6-4.7,2.2-5.3c0.6-0.6,2.1-1,3.9-1.1c1.8-0.2,3.7,0.9,4.1,2.4c1.2,5.1,3.1,6.3,3.7,6.8
	c0.6,0.4,1.9-0.4,2.3-0.7c0.5-0.3,1.7-1.5,1.3-2.1c-0.6-1-0.9-1.5-1-2.1c-0.2-1,1-0.8,1.3-0.7c3.5,2,5.3,2.5,9,2.9
	c3.6,0.4,9.6-1.2,10.3-1.1c0.6,0.1,1.6,0.5,2,1.2c0.3,0.5,0.8,1.7,1.3,2c0.5,0.2,1.8,0.3,2.5,0.4c0.9,0.1,2.6,0.1,2.3,1.7
	c-0.7,4.3-4.6,6.5-5,6.8l-0.1,0.1l0.1-0.1c-0.7,0.4-1.5,0.6-2.6,0.8c-0.8,0.1-1.3,0.3-1.6,0.5c-0.5,0.5,0.4,1.4,1.3,2
	c0.6,0.5,2.6,0.1,4.2-0.4h0l0.2,0c3.3-1.4,4.8-3.2,6.4-5.6c1.7-2.4,3.5-10.7,3.8-12.1c0.3-1.4,0.8-2.2,1.6-2.6
	c0.8-0.5,4.6-2.2,5.1-2.2c0.5,0,1.1,0,1.5,1.3c0.4,1.3,0.6,9.3,0.6,10.5c0.1,1.3,0.8,1.2,1.2,1c0.8-0.4,1.5-1,2.3-2
	c0.8-1,0.5-2.6,0-3.4c-0.6-0.8-1.5-2.1-0.9-3.1c1.4-2.4,3.5-2,4.1-1.9C346.5,129.4,348.5,130.6,348.1,136.3 M298.4,180.4
	c-1.4,0.5-5.5,1.4-7.5,1.5c-2,0.1-8.4,0.5-9.4,0.5c-1.3-0.1-3.1-0.7-4.5-1.9c-0.3-0.2-0.6-1.1,0.6-1.1c2.2,0,5.9-1.1,18.5-0.1
	c1.4,0.1,2,0.2,2.3,0.2C298.7,179.4,299.8,180,298.4,180.4 M268.7,174c-5.7,1.1-7-0.9-7.4-1.5c-0.4-0.6,0.3-1.1,0.9-1.2
	c1.4-0.4,3.3-1.4,4.3-2.2c1-0.7,3.1-3.3,4.5-4.2c0.7-0.4,4-1,6.2,0.4c2.7,1.7,7,2.4,9.8,2.4c2.7,0,4-1.8,4.8-2.8
	c0.8-1,2.2-1.3,3-1.5c2.2-0.5,5.3-2.9,5.6-3.2c0.3-0.2,1.2-0.5,2.5,0.4c2.3,1.7,3.3,3.7,5.3,6.5c2,2.8,4.6,3.5,5.4,3.7
	c0.8,0.2,1.2,1.1,1.2,1.4c0,0.2-0.8,1-1.3,1.3c-0.5,0.3-0.9,0.9-5.3,0.4C285.9,171.6,275.6,172.7,268.7,174 M265.5,203.4
	c-4.5,0.1-15.7-4.6-20.8-23.6c-1.3-4.9,1.5-9.2,3.5-9.9c1.2-0.4,1.8-0.5,2.2-0.6c0.4,0,2.5,0,2.4,2.1c-0.1,1.8,1.5,16.4,5.5,21.7
	c1,1.3,1.9,1.4,2.4,0.2c0.4-1.1,1.1-2.5,1.4-3c0.2-0.4,1.5-1.4,1.9,0.2c0.9,3.4,2,7.9,2.9,9.8C267.7,202.2,267.2,203.4,265.5,203.4
	 M241,149c0.5,0.3,1.9,1.4,3.5,1.9c1,0.3,1.7-0.1,2-0.7c0.3-0.7,1.2-2-0.1-2.7c-1.4-0.7-5.3-2.5-7.6-8.4c-0.3-0.8,0.2-1.4,0.5-1.6
	c0.3-0.2,1.5-0.7,2.1-0.9c0.6-0.2,1.3-0.1,1.9,0.5c0.6,0.6,2,1.8,3.3,1.9c1.1,0,1.3-0.4,1.6-0.6c1-1,3.7-4.8,9.4-4.2
	c2.4,0.3,4.5,0.8,5.3,0.8c0.8,0.1,3.6,0.2,5.4-0.7c1.8-0.8,2.3,0,1.3,1.1c-1.1,1-1.9,1.6-1,2.8c0.7,0.9,1,1.2,1.2,1.5l-0.1,0.4
	c0,0,0,0.2-0.1,0.6c-0.3,1.6-1.6,3.3-2.6,4.3c-1.4,1.3-3.9,2-4.9,2.3c-1.2,0.4-3.1,0.5-3.4,0.5c-0.1,0-0.5,0-0.7,0l-0.4,0l-0.5,0
	l-0.2,0l-0.3,0c-0.1,0-0.3,0-0.4,0c-0.7,0.2-1.1,0.7-1,1.3c0,0.3,0.2,0.7,0.4,1c0.2,0.5,1,1.5,2.6,1.5l0.3,0c1.8-0.2,3-0.3,4.1-0.5
	c0.6-0.1,1.4-0.3,2-0.5c-0.3,0.3-0.6,0.7-0.9,1.1c-1.5,2.2-1.5,3.1-1.7,3.9c-0.2,0.9-1,1.1-1.8,1.4c-0.8,0.2-4,1.5-6.5,3.5
	c-2.5,2-5.4,1.9-7.6-0.5c-2.2-2.4-5.1-5.9-6-9.9C239.7,148.7,240.5,148.6,241,149 M238,127.8c0.3-0.9,1.6-3.1,3.8-3.5
	c0.3-0.1,1.4-0.2,2.3-0.4c1.1-0.1,2.2-0.2,2.8-0.2c1.6-0.1,1.8,1.1,0.7,1.7c-0.7,0.4-1.8,0.9-2.8,1.5c-1.5,0.9-3,1.9-4.1,2.6
	C239.3,130.3,237.4,129.5,238,127.8 M262.6,128.5c-1.4-0.2-2.9-0.6-5.6,0c-3,0.7-5.1,1.7-6.5,2.4c-1.5,0.6-3,0.8-3.5,0.8
	c-0.5,0-2.2-0.5-0.8-1.5c0.4-0.3,1.2-0.4,2.5-1.1c0.9-0.5,1.6-0.8,2.7-1.5c1.9-1.2,5.7-2.7,7.2-2.7c1.1,0,3.1,0.5,4.1,1.5
	C263.7,127.4,264,128.7,262.6,128.5 M272.9,156.6c0.4,0.6,0.5,1.6,0.4,2.1c-0.1,0.5-2,1.2-3.6-1.1c-1.6-2.3-0.9-5,0.1-6.1
	c1.5-1.7,3.8-0.5,3.5,0.2C272.1,153.9,272.6,156,272.9,156.6 M320.1,133.3c-0.6,0.3-2.4-0.3-3-0.6c-1.3-0.7-2.2-1.1-3.9-2.5
	c-1.1-0.9-3.2-1.5-5.1-1.2c-1.3,0.2-2.3,0.4-3.4,0.6c-1.1,0.3-1.2-0.7-0.9-1.1c0.3-0.4,2.3-2.1,4.7-2.6c0.5-0.1,1.5-0.1,2,0
	c1.4,0.2,3.2,1.1,4.4,2.2c1.2,1.1,3.2,3,4.6,3.8C320.1,132.3,321.6,132.7,320.1,133.3 M319.1,127.3c-0.8-0.7-2.2-1.8-3-2.2
	c-0.6-0.3-0.3-1,0.6-1c3.2,0,5.2,0.2,6.6,1.3c1,0.8,1.6,2.2,1.1,3.3c-0.6,1.3-1.1,0.9-1.8,0.8C322,129.4,319.9,128,319.1,127.3
	 M332.7,124.5l-0.2,1.5c0,0.3-0.5,0.6-0.9,0.6c-0.4,0-3.2-0.1-3.7-0.1c-0.4,0-0.8-0.3-0.8-0.7c0-0.4,0.1-1.3,0.1-1.6
	c0-0.2,0-0.6,0.6-0.5c0.3,0,3.3,0.1,4.3,0.1C332.6,123.8,332.8,124.1,332.7,124.5 M237.2,116.4c0-0.9-0.1-2.5,0.1-3.5
	c0.1-0.4,0.3-1.3,0.9-1.8c0.8-0.7,1.8-1.2,2.4-1.6c1.2-0.7,1.3-2.9,1.5-4.1c0.7-3.6,2-15,11.3-25c4.7-5.1,9.4-4.9,14.4-5.1
	c4.7-0.2,10,1.2,12.6,2.4c2.1,0.9,3.1,1.6,4,1c0.8-0.6,3-2.4,3.9-3c0.9-0.6,0.6-1.6-0.3-2.3c-0.8-0.6-8.9-8.1-21-9.9
	c-11.8-1.8-22,1-24.6,1.5c-0.5,0.1-0.8,0.1-1.1,0.1c-0.3,0-1.3-0.5-0.8-1.2c0.5-0.7,1.7-1.8,3-2.6c1.3-0.8,7.6-5.2,13.4-6.8
	c1.1-0.3,1.4-0.4,2.1-0.6c0.9-0.2,1.6-1.9-0.2-2.2c-1.9-0.3-2.7-0.1-3.7-0.1c-1,0-1.5-0.5-0.8-1.2c0.8-0.7,2.1-1.5,4.5-2.4
	c5.2-1.9,14.5-3.4,18.8-3.8c5.6-0.4,6.3-0.4,10-0.2c3.4,0.2,6.1,0.8,7.4,1c10.8,1.8,22.8,6.8,31.7,14.2c8.3,7.7,20.1,20.2,19,47.2
	c-0.1,3.2-0.6,5-0.8,5.8c-0.2,0.8-1.4,2.1-2,0.4c-2-5.9-5.2-13.6-9.1-21.1c-0.6-1.2-1.5-0.9-1.4,0.3c0,0.5,0.6,7.9,0.5,8.9
	c-0.1,1-0.9,3.4,2.3,8.5c1.3,2.1,2.5,3.8,2.9,6.7c0.3,2.8,0.4,4.1,0.4,4.3c0,0.3,0.2,1.2-1.2,1c-1.4-0.2-6.6-1.2-8.8-1.5
	c-2.3-0.2-18-0.8-24-0.3c-6,0.4-9.3,1.4-12.6,4c-0.8,0.6-1.9,1.2-2.1,1.2c-0.2,0-1-0.1-2.4-0.4c-1.5-0.3-4-0.3-5.5,0.1
	c-1.4,0.4-2.5,0.8-4,0c-2.2-1.2-5.6-5.8-16-6.6c-9.7-0.8-12-0.9-22.8-0.3C237.9,117.8,237.3,117.3,237.2,116.4 M234.5,92.3
	c-0.8,0.6-2.5,2-3.3,4.1c-0.8,2.2-4,9.8-4.5,21.8c0,1.4,0.3,3.3-1.2,3.8c-0.9,0.3-1.7,0.6-2.4,0.7c-0.7,0.2-1.3,0.2-1.7-0.7
	c-0.8-2.3-1.2-6.2-1.1-8.8c0-2.5,0.5-10,1.3-14.1c0.7-4,0.2-6.4-1-8.5c-1.3-2.1-2-3.6-2.3-4.3c-0.4-0.9,0-1.4,1-1.9
	c0.5-0.2,1.3,0.1,2,0c1.4-0.1,6.2-1.1,9.9-3.2c3.7-2.1,9.8-6.3,13.7-7.7c3.9-1.4,5.6-2.1,10-2c0.8,0,1.8,0.5,0.4,1.3
	c-1.4,0.8-5.7,1.6-11.4,7.9c-3.5,3.8-4.3,6.2-5.5,8C237.1,90.6,236.1,91,234.5,92.3 M234.8,125.9c-0.2,0-2.3,0-3.4,0
	c-0.7,0-1.4,0.2-1.4-0.5c0-0.7-0.1-1.7-0.1-2c0-0.3,0.2-0.5,0.5-0.5c0.8-0.1,4-0.2,4.3-0.2c0.3,0,0.6,0.2,0.6,0.8
	c0,0.6,0.1,1.3,0.1,1.5C235.4,125.4,235.4,125.9,234.8,125.9 M226.7,139.6c-0.7-0.6-3.1-4.8-3.9-9.2c-0.1-0.5-0.1-1.6,0.7-1.9
	c0.7-0.2,1.6-0.5,2.1-0.7c0.5-0.1,1.6-0.3,1.6,1.3c-0.1,1.6-0.2,3.4,1,8.1c0.2,0.8,0.3,1.1,0.3,1.4
	C228.6,139.6,227.3,140.1,226.7,139.6 M352.2,120.9c0,0,10.2-35.2-19.3-63l-1.6-1.3c-1.2-1-2.8-2.3-4.6-3.5
	c-3.8-2.6-6.9-4.6-13.1-7.5c-1.6-0.7-8.5-3.7-15-5.1c-2.3-0.5-6.7-1.5-10.9-1.9l-0.7,0l-0.1,0l-0.7,0l-0.4,0l-0.7,0l-0.6,0l-0.8,0
	l-0.9,0c-0.3,0-0.7,0-1.1,0l-1.2,0l-0.9,0l-0.9,0l-1,0c-1,0-2.4,0.2-3.8,0.4c-2.3,0.3-4.8,0.7-6.3,1c-1.7,0.4-4,0.8-6.9,1.6
	c-1.2,0.3-2.4,0.7-3.6,1l-1,0.3c-1.3,0.4-2.6,0.8-3.9,1.2c-0.9,0.3-5,1.9-5.8,2.3c-0.4,0.2-1,0.4-1.6,0.6c-4,1.2-3.5,3.7-3.5,3.7
	c-4.7,11-19.5,10.3-19.5,10.3c-0.4,4.7,10.5,9.1,10.5,9.1c-2,3.8-8.2,6.6-15.4,7.2c-7.3,0.6-8,6.4-8,6.4c3.5,5.3,7.9,6.6,3.9,32.9
	c-4,26.3,19.2,45.6,19.2,45.6c-1.7,11.7,6.2,24.6,6.2,24.6c-2.5,9.6,6.8,23.5,6.8,23.5c0.7,0.9,6.8,7.9,17.7,14.3
	c1.7,1,2.9,1.6,3.5,2l0.1,0.1l0.2,0.1l0.1,0.1l0.1,0c0.3,0.4,0.7,1.1-0.4,1.3c-1.1,0.1-4.2-0.2-7.6,0.6c-3.4,0.8-2.9,2-3,3.9
	c-0.1,1.7,0.1,2.9,0,5.2c-0.1,2.3-0.5,4.3,0.5,5.4c1,1.1,2.5,1.8,6.8,1.6c4.1-0.2,5.4-0.4,5.9-0.3c0.5,0,9.4-0.4,10.8-0.9
	c1.2-0.4,1.7,0.5,0.8,2.1c-1.8,3.5-9.3,17.1-24.2,29.9c-2.5,1.9,10.3,5.2,11.3,4.8c1-0.4,8.2-7.5,12.5-14c0.2-0.3,2.3-3.2,3.9-7.2
	c0.3-0.7,0.8-1.1,0.9-0.1c0.1,0.7,1.6,19.9,0.6,26.9c-0.5,3.6,2.7,3,11.2,5c2.1,0.5,0.9-32.5-4.1-46.1v0c0-0.1-0.1-0.2-0.1-0.3
	c0-0.5,0.3-0.8,0.8-0.9l0.3-0.1c2.9-0.4,9.5-0.1,10.7-0.1c1.1,0,4.1,0.5,5.7,0.7c1.6,0.1,5.2,0.5,5.1-4.1c0-1.2,0-2.5,0-3.6l0-0.5
	l0-0.8l0-0.5l0-0.5l0-0.4l0-0.7l0-0.2l0-0.5l0-0.2l0-0.3l0-0.1l0-0.4c0-1.1-0.2-2.7-2.4-3.3c-2.6-0.6-7-0.6-11.1,0.2
	c-0.6,0.1-0.9,0-1-0.1c-0.1-0.2,0.1-0.5,0.5-0.7c0.9-0.6,8.4-4,15.1-9.7c7.4-6.3,11-11.1,13.3-15.6c0,0,7.4-14.7,5.7-30.9l1.3-1.6
	c0,0,5.1,1.8,8.1-5.6C347.9,156.8,367,125.4,352.2,120.9"/>
<path class="st0" d="M311,245.4v0.3h-1v2.3h-0.4v-2.3h-1v-0.3H311"/>
<path class="st0" d="M311.4,245.4h0.6l0.8,2.3l0.8-2.3h0.5v2.7h-0.4v-1.6l0-0.3l0-0.4l-0.8,2.2h-0.4l-0.8-2.2v0.1l0,0.3l0,0.3v1.6
	h-0.4L311.4,245.4"/>
</svg>
