<?xml version="1.0" encoding="iso-8859-1"?>
<!-- Uploaded to: SVG Repo, www.svgrepo.com, Generator: SVG Repo Mixer Tools -->
<!DOCTYPE svg PUBLIC "-//W3C//DTD SVG 1.1//EN" "http://www.w3.org/Graphics/SVG/1.1/DTD/svg11.dtd">
<svg fill="#000000" height="800px" width="800px" version="1.1" id="Capa_1" xmlns="http://www.w3.org/2000/svg" xmlns:xlink="http://www.w3.org/1999/xlink" 
	 viewBox="0 0 252.755 252.755" xml:space="preserve">
<g>
	<path d="M152.876,71.463c-0.439-14.24-12.154-25.69-26.499-25.69s-26.06,11.45-26.499,25.69
		c-43.771,11.713-76.103,51.712-76.103,99.125c0,4.143,3.358,7.5,7.5,7.5H221.48c4.142,0,7.5-3.357,7.5-7.5
		C228.98,123.175,196.648,83.176,152.876,71.463z M126.377,60.772c5.047,0,9.335,3.267,10.89,7.792
		c-3.579-0.38-7.211-0.578-10.89-0.578s-7.311,0.198-10.89,0.578C117.042,64.039,121.33,60.772,126.377,60.772z M39.094,163.088
		c3.817-44.806,41.506-80.102,87.283-80.102c45.777,0,83.467,35.296,87.284,80.102H39.094z"/>
	<path d="M245.255,191.982H7.5c-4.143,0-7.5,3.357-7.5,7.5c0,4.143,3.357,7.5,7.5,7.5h237.755c4.143,0,7.5-3.357,7.5-7.5
		C252.755,195.34,249.397,191.982,245.255,191.982z"/>
</g>
</svg>